# AST/ASF file generated using VICON BodyLanguage
# -----------------------------------------------
:version 1.10
:name VICON
:units
  mass 1.0
  length 0.45
  angle deg
:documentation
   .ast/.asf automatically generated from VICON data using
   VICON BodyBuilder and BodyLanguage model FoxedUp or BRILLIANT.MOD
:root
   order TX TY TZ RX RY RZ
   axis XYZ
   position 0 0 0  
   orientation 0 0 0 
:bonedata
  begin
     id 1 
     name lhipjoint
     direction 0.576517 -0.752066 0.319413 
     length 2.45433 
     axis 0 0 0  XYZ
  end
  begin
     id 2 
     name lfemur
     direction 0.34202 -0.939693 0  
     length 7.54459  
     axis 0 0 20  XYZ
    dof rx ry rz
    limits (-160.0 20.0)
           (-70.0 70.0)
           (-60.0 70.0)
  end
  begin
     id 3 
     name ltibia
     direction 0.34202 -0.939693 0   
     length 7.73986   
     axis 0 0 20   XYZ
    dof rx
    limits (-10.0 170.0)
  end
  begin
     id 4 
     name lfoot
     direction 0.090693 -0.249177 0.964202   
     length 2.28437   
     axis -90 7.62852e-016 20   XYZ
    dof rx rz
    limits (-45.0 90.0)
           (-70.0 20.0)
  end
  begin
     id 5 
     name ltoes
     direction 1.5356e-011 -4.21928e-011 1   
     length 1.14243   
     axis -90 7.62852e-016 20   XYZ
    dof rx
    limits (-90.0 20.0)
  end
  begin
     id 6 
     name rhipjoint
     direction -0.573937 -0.753736 0.320122   
     length 2.44889  
     axis 0 0 0  XYZ 
  end
  begin
     id 7 
     name rfemur
     direction -0.34202 -0.939693 0   
     length 7.50166   
     axis 0 0 -20   XYZ
    dof rx ry rz
    limits (-160.0 20.0)
           (-70.0 70.0)
           (-70.0 60.0)
  end
  begin
     id 8 
     name rtibia
     direction -0.34202 -0.939693 0   
     length 7.54266   
     axis 0 0 -20   XYZ
    dof rx
    limits (-10.0 170.0)
 end
 begin
     id 9 
     name rfoot
     direction -0.114017 -0.31326 0.942798   
     length 2.34212  
     axis -90 -7.62852e-016 -20   XYZ
    dof rx rz
    limits (-45.0 90.0)
           (-20.0 70.0)
  end
  begin
     id 10 
     name rtoes
     direction -1.53557e-011 -4.21867e-011 1   
     length 1.16246   
     axis -90 -7.62852e-016 -20   XYZ
    dof rx
    limits (-90.0 20.0)
  end
  begin
     id 11 
     name lowerback
     direction -0.0228371 0.999155 -0.034167   
     length 2.0537   
     axis 0 0 0   XYZ
    dof rx ry rz
    limits (-20.0 45.0)
           (-30.0 30.0)
           (-30.0 30.0)
  end
  begin
     id 12 
     name upperback
     direction 0.0198981 0.999794 0.00389455   
     length 2.05302   
     axis 0 0 0   XYZ
    dof rx ry rz
    limits (-20.0 45.0)
           (-30.0 30.0)
           (-30.0 30.0)
  end
  begin
     id 13 
     name thorax
     direction 0.0304566 0.99935 0.0192987   
     length 2.05315   
     axis 0 0 0   XYZ
    dof rx ry rz
    limits (-20.0 45.0)
           (-30.0 30.0)
           (-30.0 30.0)
  end
  begin
     id 14 
     name lowerneck
     direction -0.0196762 0.99417 0.106017   
     length 1.82056   
     axis 0 0 0   XYZ
    dof rx ry rz
    limits (-20.0 45.0)
           (-30.0 30.0)
           (-30.0 30.0)
  end
  begin
     id 15 
     name upperneck
     direction 0.00517787 0.9802 -0.197944   
     length 1.83835   
     axis 0 0 0   XYZ
    dof rx ry rz
    limits (-20.0 45.0)
           (-30.0 30.0)
           (-30.0 30.0)
  end
  begin
     id 16
     name head
     direction 0.00211419 0.996945 -0.078081  
     length 1.85629  
     axis 0 0 0   XYZ
    dof rx ry rz
    limits (-20.0 45.0)
           (-30.0 30.0)
           (-30.0 30.0)
  end
  begin
     id 17 
     name lclavicle
     direction 0.930001 0.365811 -0.0357824  
     length 3.81961  
     axis 0 0 0   XYZ
    dof ry rz
    limits (-20.0 10.0)
           (0.0 20.0)
  end
  begin
     id 18 
     name lhumerus
     direction 1 -4.48968e-011 -3.06644e-027   
     length 5.14507   
     axis 180 -30 -90   XYZ
    dof rx ry rz
    limits (-60.0 90.0)
           (-90.0 90.0)
           (-90.0 90.0)
  end
  begin
     id 19
     name lradius
     direction 1 -4.48965e-011 9.06925e-028   
     length 3.50646   
     axis 180 -30 -90   XYZ
    dof rx
    limits (-10.0 170.0)
  end
  begin
     id 20
     name lwrist
     direction 1 -4.48957e-011 1.03922e-027   
     length 1.75323   
     axis -2.56395e-016 90 90   XYZ
    dof ry
    limits (-180.0 0.0)
 end
  begin
     id 21 
     name lhand
     direction 1 -4.48967e-011 2.08017e-027   
     length 0.629969   
     axis -1.32723e-015 90 90   XYZ
    dof rx rz
    limits (-90.0 90.0)
           (-45.0 45.0)
  end
  begin
     id 22 
     name lfingers
     direction 1 -4.49089e-011 4.20095e-027   
     length 0.507897   
     axis -2.6545e-015 90 90   XYZ
    dof rx
    limits (0.0 90.0)
  end
  begin
     id 23
     name lthumb
     direction 0.707107 -6.35001e-011 0.707107   
     length 0.729241   
     axis -90 45 5.05613e-014   XYZ
    dof rx rz
    limits (-45.0 45.0)
           (-45.0 45.0)
  end
  begin
     id 24 
     name rclavicle
     direction -0.881882 0.464123 -0.0829113   
     length 3.47515  
     axis 0 0 0   XYZ 
    dof ry rz
    limits (-10.0 20.0)
           (-20.0 0.0)
  end
  begin
     id 25 
     name rhumerus
     direction -1 -4.48961e-011 -1.55672e-027  
     length 5.232   
     axis 180 30 90   XYZ
    dof rx ry rz
    limits (-90.0 60.0)
           (-90.0 90.0)
           (-90.0 90.0)
  end
  begin
     id 26 
     name rradius
     direction -1 -4.48963e-011 6.18178e-029   
     length 3.65641   
     axis 180 30 90   XYZ
    dof rx
    limits (-10.0 170.0)
  end
  begin
     id 27 
     name rwrist
     direction -1 -4.48982e-011 1.04136e-027   
     length 1.8282   
     axis -2.56395e-016 -90 -90   XYZ
    dof ry
    limits (-180.0 0.0)
  end
  begin
     id 28
     name rhand
     direction -1 -4.48929e-011 2.07378e-027   
     length 0.656807   
     axis -1.32723e-015 -90 -90   XYZ
    dof rx rz
    limits (-90.0 90.0)
           (-45.0 45.0)
  end
  begin
     id 29
     name rfingers
     direction -1 -4.489e-011 4.13816e-027   
     length 0.529535   
     axis -2.6545e-015 -90 -90   XYZ
    dof rx
    limits (0.0 90.0)
  end
  begin
     id 30
     name rthumb
     direction -0.707107 -6.34843e-011 0.707107   
     length 0.760309   
     axis -90 -45 -5.05613e-014   XYZ
    dof rx rz
    limits (-45.0 45.0)
           (-45.0 45.0)
  end
:hierarchy
  begin
    root lhipjoint rhipjoint lowerback
    lhipjoint lfemur
    lfemur ltibia
    ltibia lfoot
    lfoot ltoes
    rhipjoint rfemur
    rfemur rtibia
    rtibia rfoot
    rfoot rtoes
    lowerback upperback
    upperback thorax
    thorax lowerneck lclavicle rclavicle
    lowerneck upperneck
    upperneck head
    lclavicle lhumerus
    lhumerus lradius
    lradius lwrist
    lwrist lhand lthumb
    lhand lfingers
    rclavicle rhumerus
    rhumerus rradius
    rradius rwrist
    rwrist rhand rthumb
    rhand rfingers
  end

#!OML:ASF H:\ManfredETheater\Project 1\Capture day 1\Session 1\subject.ASF
:FULLY-SPECIFIED
:DEGREES
31
root -2.46189 16.1429 32.3888 -158.452 1.45979 180.357
lowerback 18.1884 0.791731 1.39276
upperback 0.352391 1.76238 1.98795
thorax -9.8732 0.917449 0.893845
lowerneck -16.6895 -1.12373 -1.99979
upperneck 4.26568 -1.12922 -1.96471
head 3.94237 -0.804291 -0.386789
rclavicle -2.26615e-014 -2.62396e-014
rhumerus -42.2743 16.5956 -95.3872
rradius 115.693
rwrist -4.62442
rhand -25.117 3.40592
rfingers 7.12502
rthumb 1.39853 -26.5692
lclavicle -2.26615e-014 -2.62396e-014
lhumerus -69.9132 -19.4926 102.675
lradius 120.993
lwrist 19.1554
lhand -19.5471 -16.1289
lfingers 7.12502
lthumb 6.777 13.7426
rfemur -15.1436 2.73866 26.2016
rtibia 36.2147
rfoot -27.6983 -18.6578
rtoes -34.7114
lfemur -79.94 11.8417 -20.5732
ltibia 119.464
lfoot -17.2274 -9.57308
ltoes -7.46219
32
root -2.44234 16.2584 31.9829 -158.756 1.72707 180.302
lowerback 18.2245 1.20566 1.28501
upperback 0.440064 2.2604 1.75359
thorax -9.79397 1.15248 0.568766
lowerneck -16.3495 -1.50612 -2.24575
upperneck 4.39158 -1.59846 -1.70348
head 3.9317 -1.01599 -0.30151
rclavicle -8.34896e-015 3.18055e-015
rhumerus -42.0911 18.1092 -95.0208
rradius 118.02
rwrist -3.27618
rhand -24.7575 5.15381
rfingers 7.12502
rthumb 1.74579 -24.8188
lclavicle -8.34896e-015 3.18055e-015
lhumerus -72.1484 -19.2265 102.618
lradius 123.075
lwrist 19.7494
lhand -19.1229 -15.9459
lfingers 7.12502
lthumb 7.1865 13.9121
rfemur -11.548 3.20677 25.9996
rtibia 32.266
rfoot -24.9901 -17.6737
rtoes -35.9246
lfemur -82.9087 11.5347 -21.3749
ltibia 118.658
lfoot -18.081 -9.86488
ltoes -8.01007
33
root -2.42666 16.3864 31.5707 -159.045 2.02357 180.296
lowerback 18.2715 1.60642 1.24608
upperback 0.54537 2.75935 1.52731
thorax -9.69562 1.38682 0.213884
lowerneck -16.0138 -1.85711 -2.47375
upperneck 4.48311 -2.03378 -1.45609
head 3.91284 -1.21285 -0.21996
rclavicle 4.37326e-015 -2.06736e-014
rhumerus -41.8545 19.5073 -94.5475
rradius 119.964
rwrist -1.99607
rhand -24.6855 6.33271
rfingers 7.12502
rthumb 1.81529 -23.6393
lclavicle 4.37326e-015 -2.06736e-014
lhumerus -74.0857 -18.8131 102.393
lradius 124.836
lwrist 19.7293
lhand -18.8843 -15.8028
lfingers 7.12502
lthumb 7.41681 14.0472
rfemur -7.90701 3.59388 25.8112
rtibia 28.0573
rfoot -21.7201 -16.321
rtoes -37.0661
lfemur -85.5928 11.1574 -22.0747
ltibia 117.372
lfoot -18.8358 -10.2145
ltoes -8.65486
34
root -2.41506 16.5284 31.1511 -159.339 2.2912 180.315
lowerback 18.3399 1.96019 1.29827
upperback 0.679563 3.21983 1.30501
thorax -9.56879 1.60155 -0.17754
lowerneck -15.6969 -2.17127 -2.67685
upperneck 4.53416 -2.4288 -1.21977
head 3.88569 -1.39145 -0.14205
rclavicle 2.42517e-014 3.73715e-014
rhumerus -41.5328 20.7968 -94.0025
rradius 121.499
rwrist -0.971022
rhand -24.823 7.03479
rfingers 7.12502
rthumb 1.68251 -22.9383
lclavicle 2.42517e-014 3.73715e-014
lhumerus -75.7144 -18.2637 101.996
lradius 126.27
lwrist 19.1377
lhand -18.8356 -15.7116
lfingers 7.12502
lthumb 7.46379 14.1367
rfemur -4.17181 3.81838 25.6218
rtibia 23.5166
rfoot -17.8441 -14.6361
rtoes -38.0024
lfemur -87.9144 10.6805 -22.6608
ltibia 115.608
lfoot -19.5333 -10.6064
ltoes -9.50199
35
root -2.40713 16.6838 30.7242 -159.614 2.51786 180.357
lowerback 18.4133 2.25581 1.43616
upperback 0.83135 3.62522 1.08946
thorax -9.41614 1.78911 -0.594308
lowerneck -15.4018 -2.44159 -2.85418
upperneck 4.5488 -2.77324 -0.99249
head 3.85147 -1.54633 -0.0666197
rclavicle -2.94201e-014 -1.19271e-014
rhumerus -41.1227 21.9862 -93.4192
rradius 122.619
rwrist -0.382604
rhand -25.0759 7.33583
rfingers 7.12502
rthumb 1.43824 -22.6391
lclavicle -2.94201e-014 -1.19271e-014
lhumerus -77.0397 -17.5799 101.446
lradius 127.387
lwrist 18.0844
lhand -18.9934 -15.6368
lfingers 7.12502
lthumb 7.31157 14.2168
rfemur -0.293067 3.85723 25.4172
rtibia 18.4533
rfoot -13.2079 -12.7388
rtoes -38.6425
lfemur -89.8527 10.1345 -23.126
ltibia 113.393
lfoot -20.1588 -11.0687
ltoes -10.2952
36
root -2.40191 16.8507 30.2916 -159.823 2.75072 180.446
lowerback 18.4418 2.51264 1.63576
upperback 0.991945 3.99383 0.884202
thorax -9.22082 1.95958 -1.021
lowerneck -15.0634 -2.65862 -2.9533
upperneck 4.14229 -3.06443 -0.822824
head 4.12378 -1.67461 -0.00514504
rclavicle -1.59028e-015 5.56597e-015
rhumerus -40.6097 23.0774 -92.8259
rradius 123.319
rwrist -0.33046
rhand -25.356 7.29015
rfingers 7.12502
rthumb 1.1677 -22.6864
lclavicle -1.59028e-015 5.56597e-015
lhumerus -78.0596 -16.778 100.774
lradius 128.193
lwrist 16.71
lhand -19.3603 -15.567
lfingers 7.12502
lthumb 6.95734 14.2987
rfemur 3.93759 3.77554 25.1883
rtibia 12.2829
rfoot -7.34144 -10.8237
rtoes -38.8011
lfemur -91.4559 9.61543 -23.4812
ltibia 110.774
lfoot -20.7408 -11.5916
ltoes -11.1019
37
root -2.3984 17.0267 29.8543 -159.96 2.97663 180.578
lowerback 18.4201 2.72911 1.87935
upperback 1.1547 4.31971 0.696179
thorax -8.98943 2.11112 -1.43756
lowerneck -14.8176 -2.84215 -3.07466
upperneck 4.10154 -3.30561 -0.623759
head 4.06953 -1.78173 0.0679917
rclavicle 5.84427e-014 -7.95139e-015
rhumerus -40.0166 24.0632 -92.255
rradius 123.609
rwrist -0.811266
rhand -25.5814 6.92656
rfingers 7.12502
rthumb 0.950065 -23.0511
lclavicle 5.84427e-014 -7.95139e-015
lhumerus -78.7889 -15.8695 100.034
lradius 128.716
lwrist 15.195
lhand -19.9101 -15.4184
lfingers 7.12502
lthumb 6.42664 14.4641
rfemur 11.0172 3.89485 24.9946
rtibia -6.67916e-014
rfoot 2.43573 -9.32195
rtoes -38.3607
lfemur -92.7284 9.14069 -23.7427
ltibia 107.805
lfoot -21.2549 -12.138
ltoes -12.023
